<?xml version="1.0" encoding="utf-8"?>
<!-- Generator: Adobe Illustrator 15.0.2, SVG Export Plug-In . SVG Version: 6.00 Build 0)  -->
<!DOCTYPE svg PUBLIC "-//W3C//DTD SVG 1.0//EN" "http://www.w3.org/TR/2001/REC-SVG-20010904/DTD/svg10.dtd">
<svg version="1.0" id="Ebene_1" xmlns="http://www.w3.org/2000/svg" xmlns:xlink="http://www.w3.org/1999/xlink" x="0px" y="0px"
	 width="115px" height="50.224px" viewBox="0 0 115 50.224" enable-background="new 0 0 115 50.224" xml:space="preserve">
<g>
	<path fill="#FFFFFF" d="M15.987,22.237h-5.594V5.451H5.769V0.714h14.844v4.737h-4.625v16.786H15.987z"/>
	<path fill="#FFFFFF" d="M24.982,18.497l-1.484,3.739H17.56l8.278-21.523h6.109l8.107,21.523h-5.965l-1.399-3.739H24.982z
		 M28.892,7.365h-0.057l-2.313,6.851h4.653L28.892,7.365z"/>
	<path fill="#FFFFFF" d="M47.222,22.237h-5.594V5.451h-4.625V0.714h14.844v4.737h-4.624L47.222,22.237L47.222,22.237z"/>
	<path fill="#FFFFFF" d="M75.171,11.075c0,6.965-4.995,11.874-11.903,11.874s-11.903-4.908-11.903-11.874
		C51.363,4.567,57.073,0,63.268,0S75.171,4.567,75.171,11.075z M57.187,11.103c0,3.711,2.74,6.423,6.08,6.423
		c3.339,0,6.079-2.712,6.079-6.423c0-2.969-2.74-5.68-6.079-5.68C59.927,5.424,57.187,8.136,57.187,11.103z"/>
	<path fill="#FFFFFF" d="M94.243,22.237h-6.965l-5.282-8.278H81.94v8.278h-5.595V0.714h8.364c4.252,0,7.478,2.027,7.478,6.623
		c0,2.969-1.655,5.537-4.709,6.08L94.243,22.237z M81.94,10.363h0.542c1.827,0,3.882-0.343,3.882-2.684
		c0-2.342-2.055-2.685-3.882-2.685H81.94V10.363z"/>
	<path fill="#FFFFFF" d="M102.897,22.237h-5.596V5.451h-4.624V0.714h14.844v4.737h-4.624V22.237L102.897,22.237z"/>
	<path fill="#FFFFFF" d="M5.595,32.642v3.599h6.137v4.738H5.595v8.449H0V27.905h12.359v4.737H5.595z"/>
	<path fill="#FFFFFF" d="M32.715,27.905v12.103c0,2.77-0.114,5.51-2.256,7.595C28.661,49.372,25.836,50,23.323,50
		c-2.512,0-5.337-0.628-7.136-2.397c-2.142-2.085-2.256-4.825-2.256-7.595V27.905h5.594v11.332c0,2.798,0.2,5.852,3.796,5.852
		s3.796-3.055,3.796-5.852V27.905H32.715z"/>
	<path fill="#FFFFFF" d="M34.833,27.905h5.594l10.248,13.159h0.058V27.905h5.595v21.523h-5.595L40.484,36.241h-0.057v13.188h-5.594
		V27.905z"/>
	<path fill="#FFFFFF" d="M58.557,27.905h7.938c5.993,0,10.934,4.71,10.934,10.763S72.461,49.43,66.494,49.43h-7.938V27.905z
		 M64.152,44.69h1.256c3.34,0,6.195-1.827,6.195-6.022c0-3.853-2.542-6.023-6.137-6.023h-1.314V44.69z"/>
	<path fill="#FFFFFF" d="M97.269,27.905v12.103c0,2.77-0.114,5.51-2.256,7.595C93.216,49.372,90.39,50,87.878,50
		c-2.514,0-5.339-0.628-7.138-2.397c-2.141-2.085-2.254-4.825-2.254-7.595V27.905h5.593v11.332c0,2.798,0.201,5.852,3.796,5.852
		c3.596,0,3.796-3.055,3.796-5.852V27.905H97.269z"/>
	<path fill="#FFFFFF" d="M111.203,33.443c-1.027-0.857-2.342-1.429-3.71-1.429c-1.027,0-2.398,0.601-2.398,1.799
		c0,1.257,1.514,1.742,2.483,2.056l1.428,0.429c2.998,0.886,5.31,2.398,5.31,5.881c0,2.142-0.514,4.337-2.228,5.794
		c-1.684,1.427-3.938,2.027-6.108,2.027c-2.712,0-5.366-0.913-7.564-2.455l2.397-4.51c1.399,1.228,3.057,2.227,4.969,2.227
		c1.312,0,2.711-0.656,2.711-2.17c0-1.57-2.199-2.112-3.397-2.455c-3.512-0.999-5.822-1.913-5.822-6.081
		c0-4.366,3.112-7.221,7.422-7.221c2.169,0,4.822,0.685,6.736,1.77L111.203,33.443z"/>
</g>
</svg>
