<?xml version="1.0" encoding="utf-8"?>
<!-- Generator: Adobe Illustrator 17.0.2, SVG Export Plug-In . SVG Version: 6.00 Build 0)  -->
<!DOCTYPE svg PUBLIC "-//W3C//DTD SVG 1.1//EN" "http://www.w3.org/Graphics/SVG/1.1/DTD/svg11.dtd">
<svg version="1.1" id="Layer_1" xmlns="http://www.w3.org/2000/svg" xmlns:xlink="http://www.w3.org/1999/xlink" x="0px" y="0px"
	 width="597.06px" height="356px" viewBox="0 0 597.06 356" enable-background="new 0 0 597.06 356" xml:space="preserve">
<path id="path2852" fill="#161616" d="M0,177.782h597.06v1.072H0V177.782z"/>
<path id="path2856" fill="#161616" d="M180.099,0h1.072v356h-1.072V0z"/>
<path id="path3003" fill="none" stroke="#161616" stroke-width="0.822" d="M277.771,166.1
	c6.869,53.611-31.024,102.64-84.635,109.508c-53.611,6.869-102.64-31.024-109.508-84.635s31.024-102.64,84.635-109.509
	c53.531-6.858,102.511,30.914,109.482,84.431"/>
<path id="path3003-1" fill="none" stroke="#161616" stroke-width="0.822" d="M342.958,157.729
	c11.481,89.615-51.858,171.569-141.472,183.05c-89.615,11.481-171.569-51.858-183.05-141.473S70.294,27.738,159.908,16.256
	C249.389,4.792,331.262,67.93,342.914,157.387"/>
<g>
	<path d="M94.939,157.968v41.511H81.907v-41.511H68.437v-10.176h39.9v10.176H94.939z"/>
	<path d="M128.321,199.479v-3.441c-0.806,0.585-1.538,1.098-2.343,1.611c-1.391,0.952-4.613,2.855-9.371,2.855
		c-6.882,0-10.03-3.734-11.275-6.296c-0.805-1.61-1.245-3.514-1.245-5.344c0-6.882,6.15-10.176,7.834-10.909
		c2.855-1.245,8.053-2.27,15.301-3.587v-2.123c0-1.318-0.22-4.612-4.32-4.612c-3.294,0-4.832,1.538-5.417,2.782
		c-0.146,0.293-0.366,0.878-0.513,1.684h-11.274c0.146-1.537,0.22-4.832,3.075-7.687c3.148-3.075,7.321-3.661,8.639-3.88
		c2.196-0.292,4.026-0.292,4.905-0.292c5.344,0,12.592,1.244,15.155,6.735c0.439,1.025,0.805,2.05,0.805,4.246v22.33
		c0,3.294,0.146,4.539,1.098,5.93H128.321z M119.974,183.592c-0.439,0.146-0.879,0.292-1.318,0.512
		c-2.782,1.171-3.514,2.782-3.514,4.247c0,0.219,0.073,1.025,0.439,1.757c0.439,0.732,1.538,2.123,3.88,2.123
		c2.05,0,3.807-1.171,4.319-1.537c3.295-2.343,3.441-5.93,3.441-9.518L119.974,183.592z"/>
	<path d="M154.819,169.096v17.131c0,1.538-0.073,2.416,0.293,3.075c0.659,1.245,2.416,1.245,2.636,1.245
		c1.317,0,2.635-0.073,3.953-0.073v8.712c-0.732,0.146-3.368,0.586-5.93,0.586c-0.805,0-1.61,0-2.343-0.073
		c-1.025-0.073-4.393,0-6.955-2.343c-2.928-2.562-2.782-6.443-2.782-9.957v-18.376h-5.564v-6.882h5.564v-11.934h11.128v12.007h7.468
		v6.882H154.819z"/>
	<path d="M194.424,196.185c-2.196,1.83-6.663,4.466-13.837,4.466c-1.977,0-9.737-0.366-15.009-5.491
		c-2.27-2.196-5.491-6.882-5.491-14.862c0-2.196,0.146-8.419,4.466-13.617c2.636-3.148,7.907-7.102,17.571-6.516
		c4.466,0.219,8.419,1.244,12.007,4.1c4.759,3.88,7.028,9.957,7.028,16.106C201.159,189.01,197.059,193.988,194.424,196.185z
		 M185.711,170.487c-1.025-0.732-2.562-1.464-5.564-1.464c-0.513,0-2.636,0.146-4.246,1.098c-2.05,1.171-4.466,4.466-4.466,10.103
		c0,3.734,1.245,6.516,1.977,7.688c0.878,1.318,3.075,3.734,7.321,3.734c6.223,0,9.005-5.198,9.005-10.909
		C189.738,174.953,187.907,172.024,185.711,170.487z"/>
	<path d="M221.142,171.366c-0.366,0.073-2.123,0.293-3.514,0.805c-3.001,1.025-3.514,2.929-3.514,5.784v21.524h-11.201v-38.216
		h10.909v3.953c0.952-0.805,1.977-1.83,4.466-2.855c3.075-1.245,5.198-1.391,6.589-1.538v9.957L221.142,171.366z"/>
	<path d="M237.466,169.096v17.131c0,1.538-0.073,2.416,0.293,3.075c0.659,1.245,2.416,1.245,2.636,1.245
		c1.317,0,2.635-0.073,3.953-0.073v8.712c-0.732,0.146-3.368,0.586-5.93,0.586c-0.805,0-1.61,0-2.343-0.073
		c-1.025-0.073-4.393,0-6.955-2.343c-2.928-2.562-2.782-6.443-2.782-9.957v-18.376h-5.564v-6.882h5.564v-11.934h11.128v12.007h7.468
		v6.882H237.466z"/>
	<path d="M242.442,182.128v-10.469h21.89v10.469H242.442z"/>
	<path d="M279.192,157.675v10.908h24.672v9.957h-24.672v20.938h-12.885v-51.688h39.681v9.884H279.192z"/>
	<path d="M328.752,199.479v-3.587c-0.805,0.878-1.245,1.318-1.684,1.684c-1.391,1.098-4.759,3.001-9.444,3.001
		c-0.879,0-5.125,0-8.126-2.343c-4.247-3.368-3.88-9.518-3.88-14.203v-22.769h11.348v23.793c0,2.416,0.073,4.247,2.123,5.491
		c0.659,0.366,1.611,0.878,3.295,0.878c3.587,0,5.491-2.05,6.003-3.441c0.366-0.952,0.439-1.904,0.439-2.929v-23.793h11.201v38.216
		H328.752z"/>
	<path d="M366.817,199.479v-21.598c0-2.562-0.073-4.466-0.439-5.491c-0.513-1.318-1.903-3.075-5.125-3.075
		c-0.512,0-2.415,0-3.807,1.171c-1.903,1.464-2.123,3.807-2.123,8.346v20.646h-11.274v-38.143h11.421v3.294
		c0.366-0.366,0.806-0.952,1.757-1.684c1.392-1.025,4.466-2.636,9.005-2.636c0.879,0,4.101,0.073,6.809,1.538
		c4.686,2.489,5.052,6.809,5.052,11.494v26.137H366.817z"/>
	<path d="M405.909,199.479l-0.073-3.587c-0.732,0.732-1.318,1.318-2.196,1.977c-3.295,2.416-6.59,2.636-8.127,2.636
		c-2.562-0.073-8.565-0.805-12.739-6.735c-1.83-2.636-3.587-6.296-3.587-13.178c0-2.196,0-12.153,7.248-17.498
		c1.317-1.025,4.246-2.855,8.712-2.855c5.345,0,8.566,2.708,10.03,3.88v-16.326h10.981v51.688H405.909z M403.566,171.585
		c-0.659-1.025-2.562-3.294-6.004-2.855c-2.123,0.293-3.807,1.464-4.979,3.222c-1.537,2.27-1.977,5.71-1.977,8.419
		c0,0.732-0.073,5.784,2.123,9.005c1.685,2.489,3.954,2.782,5.125,2.782c1.318,0,2.855-0.512,3.953-1.391
		c3.881-3.075,3.661-9.444,3.661-10.396C405.469,179.419,405.689,174.807,403.566,171.585z"/>
	<path d="M442.729,199.479v-3.587c-0.806,0.878-1.244,1.318-1.684,1.684c-1.392,1.098-4.759,3.001-9.444,3.001
		c-0.879,0-5.125,0-8.127-2.343c-4.246-3.368-3.88-9.518-3.88-14.203v-22.769h11.348v23.793c0,2.416,0.073,4.247,2.123,5.491
		c0.659,0.366,1.611,0.878,3.295,0.878c3.587,0,5.491-2.05,6.003-3.441c0.366-0.952,0.439-1.904,0.439-2.929v-23.793h11.201v38.216
		H442.729z"/>
	<path d="M487.457,193.476c-3.367,5.052-10.396,7.028-16.18,7.028c-2.05,0-8.419-0.366-13.983-3.807
		c-2.27-1.391-3.807-2.928-4.539-3.587l7.175-6.442c0.659,0.659,1.317,1.318,2.05,1.83c2.489,1.977,5.931,3.441,9.078,3.441
		c0.513,0,1.538-0.073,2.782-0.366c1.684-0.366,3.953-1.318,3.953-3.441c-0.073-2.636-3.44-2.929-7.54-3.587
		c-7.98-1.318-11.641-3.148-13.618-6.955c-1.024-2.05-1.171-3.88-1.171-4.759c0-1.025,0.22-3.294,1.61-5.71
		c1.757-3.148,6.077-7.102,14.569-7.102c2.416,0,8.054,0.366,13.837,3.661c1.099,0.659,2.123,1.317,3.148,2.05l-6.955,6.442
		c-0.659-0.512-1.318-1.025-2.05-1.464c-2.051-1.245-5.125-2.343-7.541-2.343c-1.61,0-3.075,0.439-3.588,0.659
		c-1.391,0.659-1.757,1.611-1.757,2.27c0,0.732,0.439,1.391,1.025,1.83c1.098,0.732,3.88,1.099,5.124,1.391l5.052,1.098
		c6.077,1.318,11.348,4.393,11.348,11.495C489.287,190.254,488.116,192.524,487.457,193.476z"/>
	<path d="M491.115,199.479v-12.227h11.567v12.227H491.115z"/>
	<path d="M530.94,199.479l-0.073-3.587c-0.732,0.732-1.318,1.318-2.196,1.977c-3.295,2.416-6.59,2.636-8.127,2.636
		c-2.562-0.073-8.565-0.805-12.739-6.735c-1.83-2.636-3.587-6.296-3.587-13.178c0-2.196,0-12.153,7.248-17.498
		c1.317-1.025,4.246-2.855,8.712-2.855c5.345,0,8.566,2.708,10.03,3.88v-16.326h10.981v51.688H530.94z M528.597,171.585
		c-0.659-1.025-2.562-3.294-6.004-2.855c-2.123,0.293-3.807,1.464-4.979,3.222c-1.537,2.27-1.977,5.71-1.977,8.419
		c0,0.732-0.073,5.784,2.123,9.005c1.685,2.489,3.954,2.782,5.125,2.782c1.318,0,2.855-0.512,3.953-1.391
		c3.881-3.075,3.661-9.444,3.661-10.396C530.501,179.419,530.72,174.807,528.597,171.585z"/>
	<path d="M553.777,182.713c0,0.366-0.073,1.245,0.146,2.27c0.879,4.466,4.026,7.248,8.565,7.248c0.659,0,2.123-0.073,3.661-0.659
		c3.807-1.318,5.49-5.198,6.003-6.15l8.493,4.393c-1.538,2.27-2.343,3.294-3.222,4.32c-5.638,6.223-12.958,6.735-15.813,6.735
		c-1.172,0-3.881-0.073-6.882-1.025c-8.493-2.636-12.446-10.104-12.446-18.742c0-2.343,0.146-9.444,4.905-14.936
		c2.343-2.635,6.369-6.076,14.716-6.076c2.562,0,10.176,0.292,14.935,6.955c4.319,5.93,4.173,13.837,4.246,15.667H553.777z
		 M565.271,168.876c-1.537-0.732-2.782-0.732-3.44-0.732c-4.466,0-6.517,3.294-7.102,4.612c-0.293,0.659-0.586,1.464-0.879,2.928
		h15.594C569.298,174.44,569.079,170.561,565.271,168.876z"/>
</g>
<g>
</g>
<g>
</g>
<g>
</g>
<g>
</g>
<g>
</g>
<g>
</g>
</svg>
