<?xml version="1.0" encoding="utf-8"?>
<!-- Generator: Adobe Illustrator 15.0.2, SVG Export Plug-In . SVG Version: 6.00 Build 0)  -->
<!DOCTYPE svg PUBLIC "-//W3C//DTD SVG 1.0//EN" "http://www.w3.org/TR/2001/REC-SVG-20010904/DTD/svg10.dtd">
<svg version="1.0" id="Ebene_1" xmlns="http://www.w3.org/2000/svg" xmlns:xlink="http://www.w3.org/1999/xlink" x="0px" y="0px"
	 width="50px" height="50px" viewBox="0 0 50 50" enable-background="new 0 0 50 50" xml:space="preserve">
<g>
	<rect fill="#FFFFFF" width="50" height="50"/>
	<g>
		<path fill="#007ABF" d="M17.297,21.143c-0.378,0-0.686-0.118-0.925-0.36c-0.24-0.238-0.36-0.547-0.36-0.924s0.12-0.685,0.36-0.926
			c0.238-0.24,0.547-0.361,0.925-0.361h15.429c0.341,0,0.643,0.121,0.898,0.36c0.259,0.241,0.389,0.55,0.389,0.926
			c0,0.378-0.13,0.686-0.389,0.924c-0.256,0.241-0.558,0.36-0.898,0.36L17.297,21.143L17.297,21.143z M32.726,23.716
			c0.341,0,0.643,0.12,0.898,0.36c0.259,0.239,0.389,0.548,0.389,0.924c0,0.379-0.13,0.686-0.389,0.927
			c-0.256,0.239-0.558,0.359-0.898,0.359H17.297c-0.378,0-0.686-0.12-0.925-0.359c-0.24-0.241-0.36-0.55-0.36-0.927
			s0.12-0.685,0.36-0.924c0.24-0.24,0.548-0.36,0.925-0.36H32.726z M32.726,28.857c0.341,0,0.643,0.12,0.898,0.36
			c0.259,0.239,0.389,0.549,0.389,0.925s-0.13,0.687-0.389,0.925c-0.256,0.241-0.558,0.361-0.898,0.361H17.297
			c-0.378,0-0.686-0.12-0.925-0.36c-0.24-0.238-0.36-0.548-0.36-0.923c0-0.377,0.12-0.687,0.36-0.927
			c0.24-0.24,0.548-0.36,0.925-0.36L32.726,28.857L32.726,28.857z"/>
	</g>
</g>
</svg>
