<?xml version="1.0" encoding="utf-8"?>
<!-- Generator: Adobe Illustrator 15.0.2, SVG Export Plug-In . SVG Version: 6.00 Build 0)  -->
<!DOCTYPE svg PUBLIC "-//W3C//DTD SVG 1.0//EN" "http://www.w3.org/TR/2001/REC-SVG-20010904/DTD/svg10.dtd">
<svg version="1.0" id="Ebene_1" xmlns="http://www.w3.org/2000/svg" xmlns:xlink="http://www.w3.org/1999/xlink" x="0px" y="0px"
	 width="50px" height="50px" viewBox="0 0 50 50" enable-background="new 0 0 50 50" xml:space="preserve">
<g>
	<rect fill="#FFFFFF" width="50" height="50"/>
	<g>
		<path fill="#007ABF" d="M34.682,32.019c0.24,0.24,0.396,0.498,0.464,0.771c0.069,0.273-0.034,0.531-0.308,0.771l-1.183,1.234
			c-0.24,0.24-0.524,0.36-0.85,0.36c-0.328,0-0.627-0.12-0.901-0.36l-4.886-4.885c-0.583,0.342-1.209,0.607-1.876,0.796
			c-0.669,0.188-1.38,0.283-2.134,0.283c-1.098,0-2.144-0.223-3.137-0.669c-0.995-0.445-1.86-1.045-2.598-1.802
			c-0.736-0.752-1.328-1.628-1.774-2.622c-0.446-0.993-0.669-2.04-0.669-3.136c0-1.099,0.206-2.126,0.618-3.086
			c0.411-0.96,0.977-1.8,1.697-2.522c0.72-0.72,1.569-1.284,2.546-1.697s2.014-0.617,3.111-0.617s2.143,0.223,3.138,0.668
			c0.993,0.446,1.859,1.038,2.598,1.775c0.736,0.737,1.328,1.603,1.773,2.596c0.444,0.994,0.668,2.041,0.668,3.137
			c0,1.51-0.378,2.88-1.13,4.114L34.682,32.019z M17.3,22.763c0,0.753,0.154,1.483,0.463,2.185c0.308,0.703,0.728,1.322,1.259,1.851
			c0.532,0.533,1.141,0.952,1.826,1.263c0.685,0.308,1.404,0.461,2.16,0.461c0.754,0,1.475-0.146,2.16-0.437
			c0.685-0.291,1.275-0.686,1.773-1.184s0.893-1.08,1.183-1.749c0.293-0.668,0.438-1.379,0.438-2.134
			c0-0.753-0.154-1.482-0.464-2.186c-0.307-0.702-0.728-1.32-1.258-1.852c-0.533-0.531-1.15-0.951-1.852-1.26
			c-0.703-0.309-1.432-0.462-2.187-0.462c-0.754,0-1.465,0.147-2.134,0.437c-0.669,0.292-1.252,0.686-1.748,1.182
			c-0.498,0.499-0.894,1.082-1.183,1.751C17.446,21.296,17.3,22.007,17.3,22.763z"/>
	</g>
</g>
</svg>
